<svg
    fill="none"
    height="29"
    width="29"
    xmlns="http://www.w3.org/2000/svg"
    viewBox="0 0 29 29"
>
    <title>Searchcraft Logo</title>
    <path
        d="M25.2083 21.737C21.448 25.5479 15.8495 26.3517 11.3117 24.1515L7.93083 27.5778C6.3415 29.1885 3.76621 29.1885 2.17687 27.5778C0.587529 25.9671 0.587529 23.3572 2.17687 21.7465L5.55771 18.3202C6.13933 19.5558 6.93244 20.7126 7.94017 21.7339C8.94789 22.7552 10.0925 23.5589 11.3086 24.1484L19.4325 15.9152C21.0219 14.3045 21.0219 11.6946 19.4325 10.0839C17.8432 8.47321 15.2679 8.47321 13.6786 10.0839L5.5546 18.3171C3.38676 13.7182 4.17987 8.04453 7.93705 4.23369C12.7051 -0.598405 20.434 -0.598405 25.2021 4.23369C29.9701 9.06579 29.9701 16.8986 25.2021 21.7307L25.2083 21.737Z"
        fill="#FFFFFF"
    />
</svg>